<mxfile host="app.diagrams.net" modified="2020-12-30T08:37:26.833Z" agent="5.0 (Windows NT 6.1; WOW64) AppleWebKit/537.36 (KHTML, like Gecko) Chrome/86.0.4240.111 Safari/537.36" etag="UkvfDrNfsr8eny1y9iyr" version="14.1.3" type="github">
  <diagram id="C_O_ZMxTlljodNBXf9En" name="Page-1">
    <mxGraphModel dx="2009" dy="707" grid="1" gridSize="10" guides="1" tooltips="1" connect="1" arrows="1" fold="1" page="1" pageScale="1" pageWidth="827" pageHeight="1169" math="0" shadow="0">
      <root>
        <mxCell id="0" />
        <mxCell id="1" parent="0" />
        <mxCell id="8R_pMyDKRRWHcROmqkUm-12" value="" style="edgeStyle=orthogonalEdgeStyle;rounded=0;orthogonalLoop=1;jettySize=auto;html=1;" edge="1" parent="1" source="8R_pMyDKRRWHcROmqkUm-1" target="8R_pMyDKRRWHcROmqkUm-11">
          <mxGeometry relative="1" as="geometry" />
        </mxCell>
        <mxCell id="8R_pMyDKRRWHcROmqkUm-15" value="" style="edgeStyle=orthogonalEdgeStyle;rounded=0;orthogonalLoop=1;jettySize=auto;html=1;fontSize=15;" edge="1" parent="1" source="8R_pMyDKRRWHcROmqkUm-1" target="8R_pMyDKRRWHcROmqkUm-14">
          <mxGeometry relative="1" as="geometry" />
        </mxCell>
        <mxCell id="8R_pMyDKRRWHcROmqkUm-1" value="flask&#xa;https://www.w3cschool.cn/flask/flask_application.html" style="rounded=0;whiteSpace=wrap;align=center;" vertex="1" parent="1">
          <mxGeometry y="110" width="290" height="60" as="geometry" />
        </mxCell>
        <mxCell id="8R_pMyDKRRWHcROmqkUm-17" value="" style="edgeStyle=orthogonalEdgeStyle;rounded=0;orthogonalLoop=1;jettySize=auto;html=1;fontSize=15;" edge="1" parent="1" source="8R_pMyDKRRWHcROmqkUm-2" target="8R_pMyDKRRWHcROmqkUm-16">
          <mxGeometry relative="1" as="geometry" />
        </mxCell>
        <mxCell id="8R_pMyDKRRWHcROmqkUm-2" value="jinja2" style="rounded=0;whiteSpace=wrap;html=1;" vertex="1" parent="1">
          <mxGeometry x="410" y="110" width="120" height="60" as="geometry" />
        </mxCell>
        <mxCell id="8R_pMyDKRRWHcROmqkUm-3" value="wsgi" style="rounded=0;whiteSpace=wrap;html=1;" vertex="1" parent="1">
          <mxGeometry x="650" y="110" width="120" height="60" as="geometry" />
        </mxCell>
        <mxCell id="8R_pMyDKRRWHcROmqkUm-4" value="1、route修饰器告诉函数，哪个URL调用此函数； route(rule, options),rule是URL，options 是要转发给基础Rule对象的参数列表&#xa;2、app.run(host, port, debug, options)&#xa;" style="rounded=0;whiteSpace=wrap;align=left;" vertex="1" parent="1">
          <mxGeometry x="-610" y="290" width="545" height="60" as="geometry" />
        </mxCell>
        <mxCell id="8R_pMyDKRRWHcROmqkUm-13" style="edgeStyle=orthogonalEdgeStyle;rounded=0;orthogonalLoop=1;jettySize=auto;html=1;entryX=0.468;entryY=0.033;entryDx=0;entryDy=0;entryPerimeter=0;fontSize=15;" edge="1" parent="1" source="8R_pMyDKRRWHcROmqkUm-11" target="8R_pMyDKRRWHcROmqkUm-4">
          <mxGeometry relative="1" as="geometry" />
        </mxCell>
        <mxCell id="8R_pMyDKRRWHcROmqkUm-11" value="&lt;span style=&quot;font-size: 15px;&quot;&gt;from flask import Flask&lt;/span&gt;&lt;br style=&quot;padding: 0px; margin: 0px; font-size: 15px;&quot;&gt;&lt;span style=&quot;font-size: 15px;&quot;&gt;app = Flask(__name__)&lt;/span&gt;&lt;br style=&quot;padding: 0px; margin: 0px; font-size: 15px;&quot;&gt;&lt;br style=&quot;padding: 0px; margin: 0px; font-size: 15px;&quot;&gt;&lt;span style=&quot;font-size: 15px;&quot;&gt;@app.route(&#39;/&#39;)&lt;/span&gt;&lt;br style=&quot;padding: 0px; margin: 0px; font-size: 15px;&quot;&gt;&lt;span style=&quot;font-size: 15px;&quot;&gt;def hello_world():&lt;/span&gt;&lt;br style=&quot;padding: 0px; margin: 0px; font-size: 15px;&quot;&gt;&lt;span style=&quot;font-size: 15px;&quot;&gt;return &#39;Hello World&#39;&lt;/span&gt;&lt;br style=&quot;padding: 0px; margin: 0px; font-size: 15px;&quot;&gt;&lt;br style=&quot;padding: 0px; margin: 0px; font-size: 15px;&quot;&gt;&lt;span style=&quot;font-size: 15px;&quot;&gt;if __name__ == &#39;__main__&#39;:&lt;/span&gt;&lt;br style=&quot;padding: 0px; margin: 0px; font-size: 15px;&quot;&gt;&lt;span style=&quot;font-size: 15px;&quot;&gt;app.run()&lt;/span&gt;" style="rounded=0;whiteSpace=wrap;html=1;align=left;fontSize=15;" vertex="1" parent="1">
          <mxGeometry x="-500" y="40" width="290" height="200" as="geometry" />
        </mxCell>
        <mxCell id="8R_pMyDKRRWHcROmqkUm-14" value="url_for ( )可以获取某个函数绑定的URL&lt;br&gt;redirect可以重定向至某个URL" style="whiteSpace=wrap;html=1;rounded=0;align=left;" vertex="1" parent="1">
          <mxGeometry x="35" y="250" width="220" height="60" as="geometry" />
        </mxCell>
        <mxCell id="8R_pMyDKRRWHcROmqkUm-16" value="模板渲染并返回渲染后的页面，URL绑定某个函数，这个函数处理给模板的参数，这些参数通过render渲染模板&lt;br&gt;" style="whiteSpace=wrap;html=1;rounded=0;align=left;" vertex="1" parent="1">
          <mxGeometry x="315" y="250" width="310" height="60" as="geometry" />
        </mxCell>
      </root>
    </mxGraphModel>
  </diagram>
</mxfile>
